<svg xmlns="http://www.w3.org/2000/svg" xmlns:xlink="http://www.w3.org/1999/xlink" viewBox="0 0 180 278.55"><defs><style>.cls-1{fill:url(#linear-gradient);}.cls-2{fill:url(#linear-gradient-2);}</style><linearGradient id="linear-gradient" x1="185.45" y1="41.14" x2="-0.07" y2="226.66" gradientUnits="userSpaceOnUse"><stop offset="0" stop-color="#d2e603"/><stop offset="0.1" stop-color="#c8e607"/><stop offset="0.27" stop-color="#ade614"/><stop offset="0.49" stop-color="#82e627"/><stop offset="0.74" stop-color="#46e542"/><stop offset="0.99" stop-color="#05e560"/></linearGradient><linearGradient id="linear-gradient-2" x1="58.67" y1="141.66" x2="-4.75" y2="205.09" gradientUnits="userSpaceOnUse"><stop offset="0" stop-color="#8ce623"/><stop offset="0.19" stop-color="#77e62c"/><stop offset="0.59" stop-color="#41e545"/><stop offset="0.99" stop-color="#05e560"/></linearGradient></defs><g id="Layer_2" data-name="Layer 2"><g id="Layer_1-2" data-name="Layer 1"><path class="cls-1" d="M180,60.43a59.7,59.7,0,0,1-9.27,31.62,5,5,0,0,1-7.79.89L152,82a5,5,0,0,1-.89-5.84,35,35,0,0,0-25.28-50.64A5,5,0,0,0,120,30.42V203c0,29.64-23.49,53.51-53.26,55.07L78.14,270a5,5,0,0,1-3.54,8.53H53.89a5,5,0,0,1-3.53-1.46L19.81,246.54A5,5,0,0,1,23.34,238H60a35,35,0,0,0,35-35V5a5,5,0,0,1,5-5h19C152.25,0,180.23,27.19,180,60.43Z"/><path class="cls-2" d="M72.94,168H60.72c-19.3,0-35.51,15.31-35.72,34.61a34.66,34.66,0,0,0,.26,4.69,5,5,0,0,1-5,5.7H5.23a5,5,0,0,1-5-4.58C.08,206.64,0,204.83,0,203c0-22.91,18.07-46.71,35.4-50.26l-12.2-11.2A5,5,0,0,1,26.73,133H47.94a5,5,0,0,1,3.53,1.46L60,143h0l16.46,16.46A5,5,0,0,1,72.94,168Z"/></g></g></svg>