<svg xmlns="http://www.w3.org/2000/svg" xmlns:xlink="http://www.w3.org/1999/xlink" viewBox="0 0 280.94 280.94"><defs><style>.cls-1{fill:url(#linear-gradient);}.cls-2{fill:url(#linear-gradient-2);}.cls-3{fill:url(#linear-gradient-3);}</style><linearGradient id="linear-gradient" x1="140.47" y1="280.94" x2="140.47" gradientUnits="userSpaceOnUse"><stop offset="0" stop-color="#091d42"/><stop offset="0.99" stop-color="#040d1e"/></linearGradient><linearGradient id="linear-gradient-2" x1="223.44" y1="55.16" x2="62.17" y2="216.43" gradientUnits="userSpaceOnUse"><stop offset="0" stop-color="#d2e603"/><stop offset="0.1" stop-color="#c8e607"/><stop offset="0.27" stop-color="#ade614"/><stop offset="0.49" stop-color="#82e627"/><stop offset="0.74" stop-color="#46e542"/><stop offset="0.99" stop-color="#05e560"/></linearGradient><linearGradient id="linear-gradient-3" x1="113.24" y1="142.55" x2="58.1" y2="197.68" gradientUnits="userSpaceOnUse"><stop offset="0" stop-color="#8ce623"/><stop offset="0.19" stop-color="#77e62c"/><stop offset="0.59" stop-color="#41e545"/><stop offset="0.99" stop-color="#05e560"/></linearGradient></defs><g id="Layer_2" data-name="Layer 2"><g id="Layer_1-2" data-name="Layer 1"><rect class="cls-1" width="280.94" height="280.94" rx="60"/><path class="cls-2" d="M218.71,71.93a51.89,51.89,0,0,1-8.06,27.48,4.36,4.36,0,0,1-6.77.78l-9.54-9.54a4.36,4.36,0,0,1-.78-5.08,30.43,30.43,0,0,0-22-44,4.34,4.34,0,0,0-5,4.3v150c0,25.77-20.42,46.52-46.3,47.87l9.91,10.39a4.35,4.35,0,0,1-3.07,7.42h-18a4.32,4.32,0,0,1-3.07-1.28L79.45,233.72a4.35,4.35,0,0,1,3.07-7.42h31.87a30.44,30.44,0,0,0,30.43-30.43V23.74a4.34,4.34,0,0,1,4.34-4.35h16.53C194.59,19.39,218.91,43,218.71,71.93Z"/><path class="cls-3" d="M125.64,165.44H115c-16.78,0-30.87,13.31-31,30.09a30.63,30.63,0,0,0,.22,4.08,4.37,4.37,0,0,1-4.3,4.95H66.78a4.36,4.36,0,0,1-4.34-4q-.21-2.33-.21-4.71c0-19.92,15.71-40.61,30.78-43.7L82.4,142.44A4.35,4.35,0,0,1,85.47,135h18.44a4.33,4.33,0,0,1,3.07,1.27l7.41,7.41h0L128.71,158A4.35,4.35,0,0,1,125.64,165.44Z"/></g></g></svg>