<svg xmlns="http://www.w3.org/2000/svg" xmlns:xlink="http://www.w3.org/1999/xlink" viewBox="0 0 156.48 242.15"><defs><style>.cls-1{fill:url(#linear-gradient);}.cls-2{fill:url(#linear-gradient-2);}</style><linearGradient id="linear-gradient" x1="161.21" y1="35.76" x2="-0.06" y2="197.04" gradientUnits="userSpaceOnUse"><stop offset="0" stop-color="#091d42"/><stop offset="0.99" stop-color="#040d1e"/></linearGradient><linearGradient id="linear-gradient-2" x1="51.01" y1="123.15" x2="-4.13" y2="178.29" xlink:href="#linear-gradient"/></defs><g id="Layer_2" data-name="Layer 2"><g id="Layer_1-2" data-name="Layer 1"><path class="cls-1" d="M156.48,52.53A51.89,51.89,0,0,1,148.42,80a4.36,4.36,0,0,1-6.77.78l-9.54-9.55a4.34,4.34,0,0,1-.78-5.08,30.42,30.42,0,0,0-22-44,4.34,4.34,0,0,0-5,4.3v150c0,25.77-20.42,46.53-46.3,47.88l9.91,10.38a4.35,4.35,0,0,1-3.07,7.42h-18a4.35,4.35,0,0,1-3.07-1.27L17.22,214.32a4.35,4.35,0,0,1,3.07-7.42H52.16a30.43,30.43,0,0,0,30.43-30.43V4.35A4.34,4.34,0,0,1,86.93,0h16.53C132.36,0,156.68,23.64,156.48,52.53Z"/><path class="cls-2" d="M63.41,146.05H52.79c-16.78,0-30.87,13.31-31,30.08a30.45,30.45,0,0,0,.22,4.08,4.37,4.37,0,0,1-4.3,5H4.55a4.36,4.36,0,0,1-4.34-4c-.14-1.56-.21-3.13-.21-4.72,0-19.91,15.71-40.6,30.78-43.69L20.16,123a4.35,4.35,0,0,1,3.08-7.42H41.67a4.38,4.38,0,0,1,3.08,1.27l7.41,7.42h0l14.31,14.32A4.35,4.35,0,0,1,63.41,146.05Z"/></g></g></svg>